<?xml version="1.0" encoding="UTF-8"?>
<svg id="_レイヤー_1" data-name="レイヤー_1" xmlns="http://www.w3.org/2000/svg" viewBox="0 0 1075.18 324.82">
  <defs>
    <style>
      .cls-1 {
        font-size: 24.11px;
      }

      .cls-2 {
        fill: #f15a24;
      }

      .cls-2, .cls-3 {
        opacity: .11;
      }

      .cls-4 {
        font-size: 144.63px;
      }

      .cls-5 {
        font-family: HGPGyoshotai, HGPGyoshotai;
      }

      .cls-5, .cls-3 {
        fill: #fff;
      }
    </style>
  </defs>
  <text/>
  <text class="cls-5" transform="translate(214.75 293.31)"><tspan class="cls-4" x="0" y="0">ARIZONO TOYA</tspan><tspan class="cls-1" x="852.53" y="-43.31"> </tspan></text>
  <g>
    <path class="cls-2" d="M14.1,12.32c-.08-.49-.3-.92-.68-1.27-1.1-1.4-2.22-2.77-3.38-4.13-1.14-1.37-2.31-2.71-3.5-4.02-.29-.44-.67-.73-1.14-.89.08.49.3.92.68,1.27,1.1,1.4,2.22,2.77,3.38,4.13,1.14,1.37,2.31,2.71,3.5,4.02.29.44.67.73,1.14.89Z"/>
    <path class="cls-2" d="M12.39,9.68c-.03-.44-.21-.83-.55-1.16-.93-1.26-1.9-2.5-2.89-3.71-.98-1.23-1.98-2.43-3.01-3.61-.25-.4-.59-.66-1.01-.78.03.44.21.83.55,1.16.93,1.26,1.9,2.5,2.89,3.71.98,1.23,1.98,2.43,3.01,3.61.25.4.59.66,1.01.78Z"/>
    <path class="cls-2" d="M11.1,13.52c-.15-.45-.44-.8-.86-1.06-1.28-1.09-2.58-2.15-3.9-3.18-1.31-1.05-2.64-2.07-4-3.06-.35-.35-.76-.55-1.23-.59.15.45.44.8.86,1.06,1.28,1.09,2.58,2.15,3.9,3.18,1.31,1.05,2.64,2.07,4,3.06.35.35.76.55,1.23.59Z"/>
    <path class="cls-2" d="M12.36,18.09c.48.09.53-.02.15-.32-.92-.59-1.89-1.1-2.9-1.53-1.9-.9-3.81-1.77-5.73-2.62-.98-.49-2-.89-3.05-1.19-.48-.09-.53.02-.15.32.92.59,1.89,1.1,2.9,1.53,1.9.9,3.81,1.77,5.73,2.62.98.49,2,.89,3.05,1.19Z"/>
    <path class="cls-2" d="M14.22,9.83c.02-.43-.12-.81-.42-1.16-.79-1.28-1.61-2.54-2.46-3.79-.83-1.25-1.7-2.49-2.59-3.7-.21-.41-.51-.68-.92-.83-.02.43.12.81.42,1.16.79,1.28,1.61,2.54,2.46,3.79.83,1.25,1.7,2.49,2.59,3.7.21.41.51.68.92.83Z"/>
    <path class="cls-2" d="M12.07,7.73c.04-.37-.07-.69-.34-.98-.68-1.05-1.39-2.09-2.14-3.1-.37-.51-2.1-3.64-3.09-3.64-.04.37.07.69.34.98.68,1.05,1.39,2.09,2.14,3.1.37.51,2.1,3.64,3.09,3.64Z"/>
    <path class="cls-2" d="M12.59,7.38c.36,0-1.68-3.2-1.61-3.09-.31-.47-1.41-2.67-2.24-2.67-.36,0,1.68,3.2,1.61,3.09.31.47,1.41,2.67,2.24,2.67Z"/>
    <path class="cls-2" d="M12.73,13.21c-.16-.51-.47-.94-.92-1.27-1.37-1.37-2.76-2.72-4.18-4.04-1.4-1.34-2.83-2.65-4.29-3.93-.36-.43-.8-.71-1.33-.84.16.51.47.94.92,1.27,1.37,1.37,2.76,2.72,4.18,4.04,1.4,1.34,2.83,2.65,4.29,3.93.36.43.8.71,1.33.84Z"/>
    <path class="cls-2" d="M11.12,9.35c0-.37-.15-.69-.44-.96-.79-1-1.61-1.97-2.46-2.92-.51-.58-2.38-3.38-3.47-3.38,0,.37.15.69.44.96.79,1,1.61,1.97,2.46,2.92.51.58,2.38,3.38,3.47,3.38Z"/>
    <path class="cls-2" d="M14.12,6.87c.4,0-1.35-3.25-1.29-3.15-.23-.42-1.18-2.79-1.95-2.79-.4,0,1.35,3.25,1.29,3.15.23.42,1.18,2.79,1.95,2.79Z"/>
    <path class="cls-2" d="M12.17,16.03c-.25-.47-.62-.82-1.12-1.06-1.57-1.07-3.16-2.1-4.77-3.11-1.6-1.02-3.22-2.01-4.85-2.97-.43-.35-.91-.53-1.43-.55.25.47.62.82,1.12,1.06,1.57,1.07,3.16,2.1,4.77,3.11,1.6,1.02,3.22,2.01,4.85,2.97.43.35.91.53,1.43.55Z"/>
    <path class="cls-2" d="M11.89,11.26c-.1-.48-.35-.88-.74-1.2-1.16-1.3-2.34-2.57-3.55-3.82-1.19-1.26-2.42-2.5-3.66-3.71-.31-.41-.7-.67-1.17-.79.1.48.35.88.74,1.2,1.16,1.3,2.34,2.57,3.55,3.82,1.19,1.26,2.42,2.5,3.66,3.71.31.41.7.67,1.17.79Z"/>
  </g>
  <g>
    <path class="cls-3" d="M325.37,277.11c-.08-.49-.3-.92-.68-1.27-1.1-1.4-2.22-2.77-3.38-4.13-1.14-1.37-2.31-2.71-3.5-4.02-.29-.44-.67-.73-1.14-.89.08.49.3.92.68,1.27,1.1,1.4,2.22,2.77,3.38,4.13,1.14,1.37,2.31,2.71,3.5,4.02.29.44.67.73,1.14.89Z"/>
    <path class="cls-3" d="M323.65,274.47c-.03-.44-.21-.83-.55-1.16-.93-1.26-1.9-2.5-2.89-3.71-.98-1.23-1.98-2.43-3.01-3.61-.25-.4-.59-.66-1.01-.78.03.44.21.83.55,1.16.93,1.26,1.9,2.5,2.89,3.71.98,1.23,1.98,2.43,3.01,3.61.25.4.59.66,1.01.78Z"/>
    <path class="cls-3" d="M322.37,278.31c-.15-.45-.44-.8-.86-1.06-1.28-1.09-2.58-2.15-3.9-3.18-1.31-1.05-2.64-2.07-4-3.06-.35-.35-.76-.55-1.23-.59.15.45.44.8.86,1.06,1.28,1.09,2.58,2.15,3.9,3.18,1.31,1.05,2.64,2.07,4,3.06.35.35.76.55,1.23.59Z"/>
    <path class="cls-3" d="M323.63,282.88c.48.09.53-.02.15-.32-.92-.59-1.89-1.1-2.9-1.53-1.9-.9-3.81-1.77-5.73-2.62-.98-.49-2-.89-3.05-1.19-.48-.09-.53.02-.15.32.92.59,1.89,1.1,2.9,1.53,1.9.9,3.81,1.77,5.73,2.62.98.49,2,.89,3.05,1.19Z"/>
    <path class="cls-3" d="M325.48,274.61c.02-.43-.12-.81-.42-1.16-.79-1.28-1.61-2.54-2.46-3.79-.83-1.25-1.7-2.49-2.59-3.7-.21-.41-.51-.68-.92-.83-.02.43.12.81.42,1.16.79,1.28,1.61,2.54,2.46,3.79.83,1.25,1.7,2.49,2.59,3.7.21.41.51.68.92.83Z"/>
    <path class="cls-3" d="M323.34,272.52c.04-.37-.07-.69-.34-.98-.68-1.05-1.39-2.09-2.14-3.1-.37-.51-2.1-3.64-3.09-3.64-.04.37.07.69.34.98.68,1.05,1.39,2.09,2.14,3.1.37.51,2.1,3.64,3.09,3.64Z"/>
    <path class="cls-3" d="M323.86,272.17c.36,0-1.68-3.2-1.61-3.09-.31-.47-1.41-2.67-2.24-2.67-.36,0,1.68,3.2,1.61,3.09.31.47,1.41,2.67,2.24,2.67Z"/>
    <path class="cls-3" d="M323.99,278c-.16-.51-.47-.94-.92-1.27-1.37-1.37-2.76-2.72-4.18-4.04-1.4-1.34-2.83-2.65-4.29-3.93-.36-.43-.8-.71-1.33-.84.16.51.47.94.92,1.27,1.37,1.37,2.76,2.72,4.18,4.04,1.4,1.34,2.83,2.65,4.29,3.93.36.43.8.71,1.33.84Z"/>
    <path class="cls-3" d="M322.39,274.14c0-.37-.15-.69-.44-.96-.79-1-1.61-1.97-2.46-2.92-.51-.58-2.38-3.38-3.47-3.38,0,.37.15.69.44.96.79,1,1.61,1.97,2.46,2.92.51.58,2.38,3.38,3.47,3.38Z"/>
    <path class="cls-3" d="M325.38,271.66c.4,0-1.35-3.25-1.29-3.15-.23-.42-1.18-2.79-1.95-2.79-.4,0,1.35,3.25,1.29,3.15.23.42,1.18,2.79,1.95,2.79Z"/>
    <path class="cls-3" d="M323.44,280.82c-.25-.47-.62-.82-1.12-1.06-1.57-1.07-3.16-2.1-4.77-3.11-1.6-1.02-3.22-2.01-4.85-2.97-.43-.35-.91-.53-1.43-.55.25.47.62.82,1.12,1.06,1.57,1.07,3.16,2.1,4.77,3.11,1.6,1.02,3.22,2.01,4.85,2.97.43.35.91.53,1.43.55Z"/>
    <path class="cls-3" d="M323.15,276.05c-.1-.48-.35-.88-.74-1.2-1.16-1.3-2.34-2.57-3.55-3.82-1.19-1.26-2.42-2.5-3.66-3.71-.31-.41-.7-.67-1.17-.79.1.48.35.88.74,1.2,1.16,1.3,2.34,2.57,3.55,3.82,1.19,1.26,2.42,2.5,3.66,3.71.31.41.7.67,1.17.79Z"/>
  </g>
</svg>