<?xml version="1.0" encoding="UTF-8"?>
<svg id="_レイヤー_1" data-name="レイヤー_1" xmlns="http://www.w3.org/2000/svg" viewBox="0 0 115.94 141.69">
  <path d="M42.92,15.09c4.37,24.22,8.24,45.44,11.61,63.67.67,3.46.5,5.82-.5,7.07-.68.63-1.85.94-3.53.94-2.36,0-4.72-2.04-7.07-6.13-.68-2.2-.68-4.08,0-5.66-.34-5.03-1.01-9.43-2.02-13.21-9.43,4.41-15.99,6.6-19.69,6.6-3.37,0-5.55-.94-6.56-2.83-5.05,11.95-7.91,18.71-8.58,20.28-.68.94-1.69,1.41-3.03,1.41-2.36,0-3.53-3.14-3.53-9.43,0-2.83.84-5.19,2.52-7.07C12.62,47.48,22.55,25.94,32.32,6.13c0-1.25-.17-2.67-.5-4.24,0-1.25.84-1.89,2.52-1.89,4.37,0,7.23,5.03,8.58,15.09ZM34.34,20.28c-6.74,15.09-11.95,27.67-15.65,37.73,7.07,0,12.45-.31,16.16-.94,1.34-.31,3.2-.63,5.55-.94-1.69-10.69-3.71-22.64-6.06-35.85Z"/>
  <path d="M112.01,51.59l2.8,3.11c.74.7,1.12,1.9,1.12,3.62,0,2.42-1.5,3.8-4.48,4.14-7.48.7-13.82,1.38-19.05,2.07.74,2.07,1.49,3.8,2.24,5.18.37,1.04.18,2.59-.56,4.66-1.12,11.05-2.8,31.59-5.04,61.62-.75,3.8-2.24,5.7-4.48,5.7-4.86,0-7.48-4.66-7.84-13.98.37-5.52,1.3-13.46,2.8-23.82,1.86-12.77,2.98-20.71,3.36-23.82.74-5.87.74-10.7,0-14.5-2.24.35-6.54.87-12.88,1.55-4.86-1.38-7.48-5.35-7.84-11.91.37-1.72,1.12-2.07,2.24-1.04.74.35,2.61.52,5.6.52,11.2-.69,18.67-1.38,22.41-2.07,4.48-.69,9.71-1.89,15.69-3.62,1.12.35,2.42,1.21,3.92,2.59Z"/>
</svg>